<?xml version="1.0" encoding="utf-8"?>
<!-- Generator: Adobe Illustrator 23.0.5, SVG Export Plug-In . SVG Version: 6.00 Build 0)  -->
<svg version="1.1" id="Capa_2" xmlns="http://www.w3.org/2000/svg" xmlns:xlink="http://www.w3.org/1999/xlink" x="0px" y="0px"
	 viewBox="0 0 800 800" style="enable-background:new 0 0 800 800;" xml:space="preserve">
<style type="text/css">
	.st0{fill:none;stroke:#5f5f5f;stroke-miterlimit:10;}
	.st1{fill:none;stroke:#5f5f5f;stroke-linecap:round;stroke-linejoin:round;stroke-miterlimit:10;}
</style>
<path class="st0" d="M624,746c0,0-58-64-64-75s-19-32-19-67c0-20-44-86-66-100c-22-14-63.2-49-65.2-71c0,0,0,0,0,0
	c0-0.6,1.8-27.2-6.2-35.5c-0.1-0.1-0.3-0.1-0.4,0.1c-1.3,2.5-7.3,25.1,6.9,38.1"/>
<path class="st0" d="M365.5,567.5l-13-6c0,0-5-1-4-12s-13-73-15-76c0,0-6,12-2,24s10,68,10,68s-4,13,8,17c16.6,5.5,80,67,80,67"/>
<path class="st0" d="M333.5,473.5c0,0-0.2-5.2,1.2-10.5c1.6-5.8,4.9-12,7-15.6"/>
<path class="st0" d="M367.5,513.5c0,0-36.8-63.2-29.8-125.2"/>
<path class="st0" d="M435.5,511.5c0,0-21-19-30-22s-28-52-28-52s-9.5-37.2-19.7-46.4"/>
<path class="st0" d="M385.2,455.9c-7.1-40.7,16.2-51.1,16.2-51.1"/>
<path class="st0" d="M357.8,391.1c-0.7-0.6-1.6-1.3-2.3-1.6c-11-5-21-3-30,9s-36,2-45-4s-24-14-28-13c3-15,17-60,54-56
	c28.9,3.1,43,19,43,19s2,8-10,12s12,22,12,22S357.8,387.1,357.8,391.1"/>
<path class="st0" d="M252.5,381.5c0,0,12.5-2.9,25.9-2.7c13.4,0.2,28.6-12.1,32.5-15.7c3.8-3.5,10.8-7.6,28.9-6.7
	c0,0,22.7,12.2,27.7,33.9c5,21.7,9.9,27.1,9.9,27.1"/>
<path class="st1" d="M316.6,327.6c0,0,1.3-35.7-32.7-44.2c-23.8-6-34-17.2-37.7-18c-3.6-0.8-13-6.8-32.2-0.7
	c-19.2,6.2-20.2,3.4-20.2,3.4s22.7,60,45.1,65.8c19.7,5.1,32.9,5.1,43.1-3"/>
<path class="st1" d="M194.7,268.6c0,0,33.3,10.3,45.7,25.9c12.3,15.7,55.9,31.4,55.9,31.4L296,326"/>
<path class="st1" d="M364.3,661.5c0,0,9-59.8,6.4-64.8"/>
<path class="st1" d="M371.8,679.3c0,0,9.5-73.9,8-75.1"/>
<path class="st1" d="M376.3,433c0,0,14.9-193.7-2.3-214"/>
<path class="st1" d="M377.6,413.6"/>
<path class="st1" d="M389.2,376.3c0,0,9.2-35.7,11.6-36.4c0,0,9.7,4.6,14,10.6c4.3,5.9,26.2,5.6,26.2,5.6s-1-19.6-11.4-21.5
	s-16-6.1-16-6.1s23.3-4.4,28.5-0.5c5.2,4,22.3-10.2,25-12.3c2.7-2.2,15.7-8.8,18.2-7.6c0,0-10.5-5.6-16.7-11.6
	c-4.7-4.6-31.6-6.5-44.3,4.3c-12.7,10.8-21.6,29.6-21.6,29.6s-3.5-14.3-12.8-16.4"/>
<path class="st1" d="M382.1,311.9c0,0-11.6-1.9-18.6,5.3c0,0,5.5,8.5,17.9,11.3"/>
<path class="st1" d="M390.1,330.5c0,0,7.1,0.9,8,6.8c0,0-5,14.4-8,14.4"/>
<path class="st1" d="M474.9,308.3c-57.3-3.9-75.3,29.4-75.3,29.4s11.8-5.8,19.5,5.7c4,6.1,17,8.2,17,8.2"/>
<path class="st1" d="M374,219c0,0-13.7-7.2-19.6-12.3c-5.9-5-14.5,3-17.4,4s-16.6,2.3-18.4-6.7s2.9-16,2.9-16s-13.5-7.2-16.2-16.6
	c0,0-6.3,3.9-6.1,7.8c0,0-12.1-16.6-25.4-16.4c0,0,1.1-12.2,27.9-18.1c0,0,0.2-11.9,10-11.2c0,0-1.8-8-5.5-9.6
	c-3.7-1.6,8.4-4.5,9.8-2.5c0,0,13.3-3.7,9.6-8.8c-3.7-5.1,7.2-1.4,9.2,0.2c0,0-6.1-5.1,2-10.6c8-5.5,27.2-10.6,41.3-0.2
	c0,0,15.6-8.4,37.9,5.3c0,0,4.5-9.4,18-4.5s9,16.4,9,16.4s4.3,1,6.7,0.6c2.3-0.4,5.3,4.9,5.1,7.4c0,0,4.1,5.5,13.1,5.5
	s9.2-1.4,10,12.3c0.8,13.7-10.4,29.5-22.9,29.7c0,0-23.9,29.9-42.5,22.1l-17.4,9.7c0,0-3.8,15.4-4.7,35.9
	c-1.3,28.2,0.1,67.7-0.4,103.7c-0.6,43.5-3,75.5-3,75.5"/>
<path class="st1" d="M305.3,171.4c0,0,7-3.8,14.7,1.5s11.9,8.4,14.6,4.3c2.6-4.1,4.7-11.2,11.1-10.6c6.4,0.6,29.1,6.1,36,4.7
	c6.9-1.4,20.8,2.8,21.5,4.7c0.7,1.9,12.3,5.4,13.8,4.8c1.5-0.6,6.3-8.8,17.2-7.1c11,1.7,24.4-9.4,30.9-32.6c0,0-9.8-1.2-16.8,5.8
	c-7,6.9-18.5,6.8-29.3,3.5c-10.9-3.2-25.4-0.8-28.7,2.1c0,0-11.8-1.5-19.1,0.1c0,0-13.6-6-22.1-1.3c0,0-15.2-5.3-20.1-11.8
	c-2.1-2.7-17.1-5.8-17.1-5.8"/>
<path class="st1" d="M316,121.5c0,0,14.9,14.9,15.1,20.3"/>
<path class="st1" d="M334.8,112.9c0,0,13.7,16.1,14.1,18.8c0,0-19.1-9.1-27.6-4.6"/>
<path class="st1" d="M336.8,102.3c0,0,6.2,4.1,10,3.2c3.8-0.9,19.5,2.7,19,13.9s-16.9,9-17.8,10.2"/>
<path class="st1" d="M378.1,102.1c0,0,8.9,6.1,13.2,6.1s11.8,3.2,9.9,17.9c0,0-19.7-3.1-23,7c-3.4,10.2-12.9,5.6-21.3,0.9
	c-8.4-4.7-7.9-2.4-7.9-2.4"/>
<path class="st1" d="M365.6,120.7c0,0,7.4,2.6,12-2.1c4.6-4.7,20.7,7.2,20.7,7.2"/>
<path class="st1" d="M391.3,108.3c0,0-11.5,4.8-13.1,9.9"/>
<path class="st1" d="M401.2,126.2c0,0,15.1,1.8,17.5-3.9c2.4-5.7-2.6-14.9-2.6-14.9"/>
<path class="st1" d="M443,119.3c0,0-3.2-2.1-8.1,6.5c-3.6,6.3-8.2-1.1-28.2,23"/>
<path class="st1" d="M429.3,152.5"/>
<path class="st1" d="M301.8,144.8c0,0-2.7,9.8,10.3,12.2c2.7,0.5,0,5.5,0,5.5s5.7,5.7,5.5,9.1"/>
<path class="st1" d="M342.8,166.9c0,0-28.1-7.1-29.6-7.8"/>
<path class="st1" d="M321.5,188c0,0,42.9-14.3,91,9"/>
<path class="st1" d="M354.4,206.7l6.6-5.1c3.9-3,8.6-5,13.5-5.7l5.5,1.1c7.2,1.5,14.7,0,20.7-4.3l0.8-0.6"/>
<path class="st1" d="M416.9,180.8c0,0,2.4,14.3,10.7,15.8"/>
<path class="st1" d="M403.1,176.1c0,0,8.1-6.3,19.1-9.2c4.5-1.1,10.5,0.6,15,0c5.9-0.8,11.3-3.9,15.2-1.4"/>
<path class="st1" d="M390.2,152.5c0,0-4.3,14.5,22.3,17.8"/>
<path class="st1" d="M377.9,171.6c0,0-16-19.6-28.9-20.3"/>
<path class="st1" d="M239,334c19.7,5.1,30.8,6.7,40.9-1.4"/>
</svg>
